{
    "asset" : {
        "generator" : "Khronos glTF Blender I/O v3.4.50",
        "version" : "2.0"
    },
    "scene" : 0,
    "scenes" : [
        {
            "name" : "Scene",
            "nodes" : [
                0,
                1,
                2,
                3,
                4,
                5
            ]
        }
    ],
    "nodes" : [
        {
            "mesh" : 0,
            "name" : "Body",
            "translation" : [
                0,
                1.4554320573806763,
                0
            ]
        },
        {
            "mesh" : 1,
            "name" : "EyeStick",
            "rotation" : [
                0.11466049402952194,
                0,
                0,
                0.993404746055603
            ],
            "scale" : [
                0.0665193572640419,
                0.2755139172077179,
                0.06810204684734344
            ],
            "translation" : [
                -0.01782914809882641,
                -0.06819774955511093,
                -0.015458622947335243
            ]
        },
        {
            "mesh" : 2,
            "name" : "Eye",
            "scale" : [
                0.7434709072113037,
                0.7434709072113037,
                0.7434709072113037
            ],
            "translation" : [
                -0.6490877866744995,
                2.8501951694488525,
                0.5161871314048767
            ]
        },
        {
            "mesh" : 3,
            "name" : "Shell",
            "rotation" : [
                0.028667636215686798,
                0.7084924578666687,
                0.7048423290252686,
                0.020343219861388206
            ],
            "scale" : [
                1.4885460138320923,
                1.4885460138320923,
                1.4885464906692505
            ],
            "translation" : [
                1.5332536697387695,
                1.689733862876892,
                -0.004414394497871399
            ]
        },
        {
            "name" : "BezierCircle",
            "scale" : [
                0.39049017429351807,
                0.39049017429351807,
                0.39049017429351807
            ],
            "translation" : [
                0.5159950256347656,
                -0.4005928635597229,
                -0.03719782829284668
            ]
        },
        {
            "mesh" : 4,
            "name" : "CenterShell",
            "rotation" : [
                0,
                -0.9988963603973389,
                0,
                0.046968650072813034
            ],
            "scale" : [
                0.24919718503952026,
                0.24919718503952026,
                0.24919718503952026
            ],
            "translation" : [
                1.4324476718902588,
                1.77060866355896,
                0.4278176426887512
            ]
        }
    ],
    "materials" : [
        {
            "doubleSided" : true,
            "name" : "Snail",
            "pbrMetallicRoughness" : {
                "baseColorTexture" : {
                    "index" : 0
                },
                "metallicFactor" : 0,
                "roughnessFactor" : 0.5
            }
        }
    ],
    "meshes" : [
        {
            "name" : "Roundcube.001",
            "primitives" : [
                {
                    "attributes" : {
                        "COLOR_0" : 0,
                        "POSITION" : 1,
                        "TEXCOORD_0" : 2,
                        "NORMAL" : 3
                    },
                    "indices" : 4,
                    "material" : 0
                }
            ]
        },
        {
            "name" : "Cylinder",
            "primitives" : [
                {
                    "attributes" : {
                        "POSITION" : 5,
                        "TEXCOORD_0" : 6,
                        "NORMAL" : 7
                    },
                    "indices" : 8,
                    "material" : 0
                }
            ]
        },
        {
            "name" : "Roundcube.004",
            "primitives" : [
                {
                    "attributes" : {
                        "POSITION" : 9,
                        "TEXCOORD_0" : 10,
                        "NORMAL" : 11
                    },
                    "indices" : 12,
                    "material" : 0
                }
            ]
        },
        {
            "name" : "Spiral.002",
            "primitives" : [
                {
                    "attributes" : {
                        "POSITION" : 13,
                        "TEXCOORD_0" : 14,
                        "NORMAL" : 15
                    },
                    "indices" : 16,
                    "material" : 0
                }
            ]
        },
        {
            "name" : "Sphere.002",
            "primitives" : [
                {
                    "attributes" : {
                        "POSITION" : 17,
                        "TEXCOORD_0" : 18,
                        "NORMAL" : 19
                    },
                    "indices" : 20,
                    "material" : 0
                }
            ]
        }
    ],
    "textures" : [
        {
            "sampler" : 0,
            "source" : 0
        }
    ],
    "images" : [
        {
            "bufferView" : 5,
            "mimeType" : "image/png",
            "name" : "snail1"
        }
    ],
    "accessors" : [
        {
            "bufferView" : 0,
            "componentType" : 5123,
            "count" : 114,
            "normalized" : true,
            "type" : "VEC4"
        },
        {
            "bufferView" : 1,
            "componentType" : 5126,
            "count" : 114,
            "max" : [
                2.1697041988372803,
                0.9465689659118652,
                0.8487386107444763
            ],
            "min" : [
                -1.0239229202270508,
                -1.4461957216262817,
                -0.8487386107444763
            ],
            "type" : "VEC3"
        },
        {
            "bufferView" : 2,
            "componentType" : 5126,
            "count" : 114,
            "type" : "VEC2"
        },
        {
            "bufferView" : 3,
            "componentType" : 5126,
            "count" : 114,
            "type" : "VEC3"
        },
        {
            "bufferView" : 4,
            "componentType" : 5123,
            "count" : 618,
            "type" : "SCALAR"
        },
        {
            "bufferView" : 6,
            "componentType" : 5126,
            "count" : 74,
            "max" : [
                -8.243132591247559,
                10.335987091064453,
                -0.4148542881011963
            ],
            "min" : [
                -11.12225341796875,
                7.66431188583374,
                -17.343042373657227
            ],
            "type" : "VEC3"
        },
        {
            "bufferView" : 7,
            "componentType" : 5126,
            "count" : 74,
            "type" : "VEC2"
        },
        {
            "bufferView" : 8,
            "componentType" : 5126,
            "count" : 74,
            "type" : "VEC3"
        },
        {
            "bufferView" : 9,
            "componentType" : 5123,
            "count" : 288,
            "type" : "SCALAR"
        },
        {
            "bufferView" : 10,
            "componentType" : 5126,
            "count" : 228,
            "max" : [
                0.28779464960098267,
                0.28779441118240356,
                0.28779423236846924
            ],
            "min" : [
                -0.2877945899963379,
                -0.2877947688102722,
                -1.6763815879821777
            ],
            "type" : "VEC3"
        },
        {
            "bufferView" : 11,
            "componentType" : 5126,
            "count" : 228,
            "type" : "VEC2"
        },
        {
            "bufferView" : 12,
            "componentType" : 5126,
            "count" : 228,
            "type" : "VEC3"
        },
        {
            "bufferView" : 13,
            "componentType" : 5123,
            "count" : 1152,
            "type" : "SCALAR"
        },
        {
            "bufferView" : 14,
            "componentType" : 5126,
            "count" : 1960,
            "max" : [
                1.2704737186431885,
                0.39049026370048523,
                1.0563709735870361
            ],
            "min" : [
                -0.9847126603126526,
                -0.3931751847267151,
                -0.9055057764053345
            ],
            "type" : "VEC3"
        },
        {
            "bufferView" : 15,
            "componentType" : 5126,
            "count" : 1960,
            "type" : "VEC2"
        },
        {
            "bufferView" : 16,
            "componentType" : 5126,
            "count" : 1960,
            "type" : "VEC3"
        },
        {
            "bufferView" : 17,
            "componentType" : 5123,
            "count" : 11232,
            "type" : "SCALAR"
        },
        {
            "bufferView" : 18,
            "componentType" : 5126,
            "count" : 259,
            "max" : [
                0.9945217967033386,
                1,
                0.9160311222076416
            ],
            "min" : [
                -0.9945217370986938,
                -1,
                -1
            ],
            "type" : "VEC3"
        },
        {
            "bufferView" : 19,
            "componentType" : 5126,
            "count" : 259,
            "type" : "VEC2"
        },
        {
            "bufferView" : 20,
            "componentType" : 5126,
            "count" : 259,
            "type" : "VEC3"
        },
        {
            "bufferView" : 21,
            "componentType" : 5123,
            "count" : 1350,
            "type" : "SCALAR"
        }
    ],
    "bufferViews" : [
        {
            "buffer" : 0,
            "byteLength" : 912,
            "byteOffset" : 0,
            "target" : 34962
        },
        {
            "buffer" : 0,
            "byteLength" : 1368,
            "byteOffset" : 912,
            "target" : 34962
        },
        {
            "buffer" : 0,
            "byteLength" : 912,
            "byteOffset" : 2280,
            "target" : 34962
        },
        {
            "buffer" : 0,
            "byteLength" : 1368,
            "byteOffset" : 3192,
            "target" : 34962
        },
        {
            "buffer" : 0,
            "byteLength" : 1236,
            "byteOffset" : 4560,
            "target" : 34963
        },
        {
            "buffer" : 0,
            "byteLength" : 133642,
            "byteOffset" : 5796
        },
        {
            "buffer" : 0,
            "byteLength" : 888,
            "byteOffset" : 139440,
            "target" : 34962
        },
        {
            "buffer" : 0,
            "byteLength" : 592,
            "byteOffset" : 140328,
            "target" : 34962
        },
        {
            "buffer" : 0,
            "byteLength" : 888,
            "byteOffset" : 140920,
            "target" : 34962
        },
        {
            "buffer" : 0,
            "byteLength" : 576,
            "byteOffset" : 141808,
            "target" : 34963
        },
        {
            "buffer" : 0,
            "byteLength" : 2736,
            "byteOffset" : 142384,
            "target" : 34962
        },
        {
            "buffer" : 0,
            "byteLength" : 1824,
            "byteOffset" : 145120,
            "target" : 34962
        },
        {
            "buffer" : 0,
            "byteLength" : 2736,
            "byteOffset" : 146944,
            "target" : 34962
        },
        {
            "buffer" : 0,
            "byteLength" : 2304,
            "byteOffset" : 149680,
            "target" : 34963
        },
        {
            "buffer" : 0,
            "byteLength" : 23520,
            "byteOffset" : 151984,
            "target" : 34962
        },
        {
            "buffer" : 0,
            "byteLength" : 15680,
            "byteOffset" : 175504,
            "target" : 34962
        },
        {
            "buffer" : 0,
            "byteLength" : 23520,
            "byteOffset" : 191184,
            "target" : 34962
        },
        {
            "buffer" : 0,
            "byteLength" : 22464,
            "byteOffset" : 214704,
            "target" : 34963
        },
        {
            "buffer" : 0,
            "byteLength" : 3108,
            "byteOffset" : 237168,
            "target" : 34962
        },
        {
            "buffer" : 0,
            "byteLength" : 2072,
            "byteOffset" : 240276,
            "target" : 34962
        },
        {
            "buffer" : 0,
            "byteLength" : 3108,
            "byteOffset" : 242348,
            "target" : 34962
        },
        {
            "buffer" : 0,
            "byteLength" : 2700,
            "byteOffset" : 245456,
            "target" : 34963
        }
    ],
    "samplers" : [
        {
            "magFilter" : 9729,
            "minFilter" : 9987
        }
    ],
    "buffers" : [
        {
            "byteLength" : 248156,
            "uri" : "data:application/octet-stream;base64,"
        }
    ]
}
